<svg width="207" height="123" viewBox="0 0 207 123" fill="none" xmlns="http://www.w3.org/2000/svg">
<rect x="99.4675" width="107.533" height="120.974" rx="2" fill="#54B8FD"/>
<path d="M126.351 49.7338C137.734 49.7338 146.664 53.8612 152.661 56.3461L153.553 56.7181C159.163 59.0542 164.88 61.8314 176.085 61.8314L183.432 61.2416C186.419 61.2416 186.838 59.8637 188.182 60.4867C190.068 61.3611 192.214 64.5194 192.215 65.8636C192.502 66.9048 192.688 67.3826 192.215 69.8959C190.375 79.6536 183.334 88.3059 175.187 93.9828C167.041 99.6596 156.992 101.913 147.201 100.261C137.41 98.6084 128.657 93.1805 122.825 85.1439C117.909 78.3705 112.241 73.4304 111.458 66.1644C111.476 64.4254 111.602 62.7129 111.832 61.0326C112.788 58.8832 115.969 54.8236 118.544 52.8373C120.824 51.0777 124.592 49.734 126.351 49.7338Z" fill="#DDF2FE"/>
<mask id="mask0_2258_2155" style="mask-type:luminance" maskUnits="userSpaceOnUse" x="0" y="0" width="135" height="123">
<path d="M134.416 0H0V122.539H134.416V0Z" fill="white"/>
</mask>
<g mask="url(#mask0_2258_2155)">
<path d="M45.8311 15.4389C47.1266 12.0381 48.9082 8.9071 51.5532 6.36992C62.1336 -3.94064 79.624 -1.3495 86.8034 11.6062C92.2018 21.431 97.9239 31.0399 103.484 40.7565C112.769 56.8972 122.162 73.0381 131.339 89.2325C139.058 102.782 130.691 119.895 115.36 122.216C105.967 123.619 97.1682 119.301 92.3096 110.88C84.1584 96.6821 75.9531 82.4848 67.8019 68.3416C67.6398 68.0176 67.4239 67.7477 67.208 67.4778C66.3443 66.7759 65.9663 65.7503 65.4265 64.8325C61.8096 58.4628 58.085 52.1469 54.4681 45.831C52.147 41.7284 49.7179 37.6795 47.3965 33.5769C45.2913 29.9062 44.3195 25.9115 44.4275 21.7009C44.5894 19.5416 44.8593 17.3823 45.8311 15.4389Z" fill="#1796FD"/>
<path d="M45.8309 15.4388C45.3452 17.3822 44.9134 19.3256 44.8053 21.3769C44.6435 25.9114 45.7769 30.1219 48.0442 34.0627C53.9822 44.2654 59.9201 54.5219 65.8043 64.7786C66.3441 65.6961 66.7759 66.6139 67.3157 67.4777C64.0768 73.0917 60.8379 78.6519 57.545 84.2662C53.0106 92.0935 48.4762 99.9748 43.8876 107.802C43.6717 107.802 43.6177 107.694 43.5636 107.532C43.5098 107.1 43.6717 106.723 43.7798 106.291C45.993 98.1935 44.1575 91.0138 38.5975 84.86C35.1965 81.1351 30.878 79.0299 25.9116 78.328C19.4337 77.4104 13.7116 79.0839 8.58328 83.1325C7.66558 83.8342 7.07178 84.86 5.99213 85.3998C5.7762 85.3998 5.66824 85.2918 5.61426 85.1299C8.20539 80.6493 10.7426 76.1687 13.3337 71.6884C24.0222 53.1183 34.7107 34.5485 45.4532 16.0326C45.561 15.8167 45.7231 15.6548 45.8309 15.4388Z" fill="#0052CC"/>
<path d="M5.83021 85.2921C6.85589 84.3743 7.82758 83.4027 8.9072 82.539C22.0249 72.1745 41.7283 79.6781 44.5895 96.0886C45.2911 100.029 44.9134 103.808 43.7257 107.587C43.6717 107.911 43.6176 108.181 43.5098 108.504C43.0241 109.368 42.5921 110.286 42.0522 111.15C37.248 119.085 30.1761 123.026 20.8912 122.432C10.2568 121.676 1.88954 113.687 0.432019 103.106C-0.269749 97.978 0.755912 93.1734 3.40103 88.7471C3.94087 87.7753 4.58864 86.9115 5.18246 85.94C5.45234 85.7241 5.34441 85.2921 5.83021 85.2921Z" fill="#0052CC"/>
<path d="M5.82972 85.2919C5.6138 85.5078 5.6138 85.8858 5.23593 85.9398C5.18195 85.5618 5.39787 85.346 5.6138 85.076L5.82972 85.2919Z" fill="#FABC04"/>
<path d="M43.5101 108.504C43.2942 108.126 43.5101 107.856 43.7259 107.586C43.78 107.64 43.8878 107.748 43.9418 107.802L43.5101 108.504Z" fill="#E1C025"/>
</g>
</svg>
